<?xml version="1.0" encoding="UTF-8" standalone="no"?>
<!DOCTYPE svg PUBLIC "-//W3C//DTD SVG 1.1//EN" "http://www.w3.org/Graphics/SVG/1.1/DTD/svg11.dtd">
<svg width="100%" height="100%" viewBox="0 0 300 64" version="1.1" xmlns="http://www.w3.org/2000/svg" xmlnsXlink="http://www.w3.org/1999/xlink" xmlSpace="preserve" xmlnsSerif="http://www.serif.com/" style="fill-rule:evenodd;clip-rule:evenodd;stroke-linejoin:round;stroke-miterlimit:1.41421;">
    <g transform="matrix(1,0,0,1,-21.55,-18.75)">
        <path d="M281.8,49.7L291.1,39.6L319.6,39.6L319.6,61.8L294,61.8L281.8,49.7Z" style="fill:rgb(221,46,39);"/>
    </g>
    <g transform="matrix(1,0,0,1,-21.55,-18.75)">
        <path d="M35.6,54.4C39.1,54.4 41.7,53.8 43.5,52.5C45.3,51.2 46.1,49.1 46.1,46.3C46.1,44.9 45.9,43.7 45.3,42.6C44.8,41.6 44,40.8 43,40.2C42,39.6 40.7,39.1 39.2,38.8C37.7,38.5 35.9,38.4 33.9,38.4L24.5,38.4C24.3,38.4 24,38.5 23.8,38.7C23.6,38.9 23.5,39.1 23.5,39.3L23.5,62.4C23.5,62.7 23.6,62.9 23.8,63.1C24,63.3 24.2,63.4 24.5,63.4L31.3,63.4C31.5,63.4 31.8,63.3 32,63.1C32.2,62.9 32.3,62.7 32.3,62.4L32.3,54.5L35.6,54.5L35.6,54.4ZM34.1,44C35.2,43.9 36.1,44.1 36.7,44.5C37.3,44.9 37.7,45.5 37.7,46.4C37.7,48 36.4,48.8 33.9,48.7L32.3,48.6L32.3,44.1L34.1,44ZM59.7,54.5C60.9,54.5 61.5,54.5 61.7,54.7C61.8,54.7 61.9,54.8 62,54.9C62.1,55 62.2,55.1 62.3,55.2L62.3,55.1L66.4,62.7C66.5,62.9 66.6,63 66.8,63.1C67,63.2 67.1,63.3 67.3,63.3L75.4,63.3C75.8,63.3 76.1,63.1 76.3,62.9C76.5,62.6 76.5,62.3 76.3,61.9L71.9,54.5C71.6,54.1 71.2,53.7 70.7,53.2C70.2,52.8 69.7,52.4 69,52C69.6,51.8 70.1,51.6 70.6,51.3C71.1,51.1 71.5,50.8 71.9,50.5C73.3,49.4 74.1,47.7 74.1,45.2C74.1,43.1 73.2,41.4 71.5,40C69.8,38.8 67.6,38.2 64.9,38.2L48.9,38.2C48.7,38.2 48.4,38.3 48.3,38.5C48.1,38.7 48,38.9 48,39.1L48,62.2C48,62.5 48.1,62.7 48.3,62.9C48.5,63.1 48.7,63.2 48.9,63.2L56,63.2C56.3,63.2 56.5,63.1 56.7,62.9C56.9,62.7 57,62.5 57,62.2L57,54.3L59.7,54.3L59.7,54.5ZM61.4,44C62.6,44 63.5,44.2 64.1,44.5C64.7,44.9 65,45.5 65,46.2C65,47.2 64.6,47.8 63.8,48.2C63,48.6 61.8,48.7 60.2,48.7L56.4,48.7L56.4,44L61.4,44ZM102.7,57.2C102.7,56.9 102.6,56.7 102.4,56.5C102.2,56.3 102,56.2 101.8,56.2L90.2,56.2L102.1,44.5C102.1,44.5 102.2,44.3 102.3,44.2C102.4,44 102.4,43.9 102.4,43.8L102.4,39.2C102.4,39 102.3,38.7 102.1,38.6C101.9,38.4 101.7,38.3 101.4,38.3L79.1,38.3C78.9,38.3 78.6,38.4 78.4,38.6C78.2,38.8 78.1,39 78.1,39.2L78.1,43.9C78.1,44.2 78.2,44.4 78.4,44.6C78.6,44.8 78.8,44.9 79.1,44.9L90,44.9L77.9,56.9C77.9,56.9 77.8,57.1 77.7,57.2C77.6,57.4 77.6,57.5 77.6,57.6L77.6,62.4C77.6,62.7 77.7,62.9 77.9,63.1C78.1,63.3 78.3,63.4 78.6,63.4L101.7,63.4C101.9,63.4 102.2,63.3 102.3,63.1C102.5,62.9 102.6,62.7 102.6,62.4L102.6,57.2L102.7,57.2ZM124.5,63.3C124.8,63.3 125,63.2 125.2,63C125.4,62.8 125.5,62.6 125.5,62.3L125.5,57.6C125.5,57.3 125.4,57.1 125.2,56.9C125,56.7 124.8,56.6 124.5,56.6L113,56.6L113,53.9L122.1,53.9C122.4,53.9 122.6,53.8 122.8,53.6C123,53.4 123.1,53.2 123.1,52.9L123.1,48.3C123.1,48 123,47.8 122.8,47.6C122.6,47.4 122.4,47.3 122.1,47.3L113,47.3L113,44.7L123.7,44.7C124,44.7 124.2,44.6 124.4,44.4C124.6,44.2 124.7,44 124.7,43.7L124.7,39C124.7,38.8 124.6,38.5 124.4,38.4C124.2,38.2 124,38.1 123.7,38.1L105.1,38.1C104.9,38.1 104.6,38.2 104.5,38.4C104.3,38.6 104.2,38.8 104.2,39L104.2,62.1C104.2,62.4 104.3,62.6 104.5,62.8C104.7,63 104.9,63.1 105.1,63.1L124.5,63.1L124.5,63.3ZM159,38.3C158.8,38.3 158.6,38.3 158.4,38.5C158.2,38.7 158.1,38.8 158,39L154.2,49.5L149.2,38.9C149.2,38.7 149,38.6 148.8,38.5C148.6,38.4 148.4,38.3 148.3,38.3L144,38.3C143.8,38.3 143.6,38.3 143.4,38.5C143.2,38.6 143.1,38.7 143,38.9L137.9,49.5L134.1,39C134.1,38.8 133.9,38.7 133.7,38.5C133.5,38.4 133.3,38.3 133.2,38.3L126.5,38.3C126.1,38.3 125.9,38.4 125.7,38.7C125.5,39 125.5,39.3 125.6,39.6L134.1,63.1C134.1,63.3 134.3,63.4 134.5,63.5C134.7,63.6 134.9,63.7 135.1,63.7L138.7,63.7C138.9,63.7 139,63.6 139.2,63.5C139.4,63.4 139.5,63.2 139.6,63.1L146,49.1L152.7,63.1C152.8,63.3 152.9,63.4 153.1,63.5C153.3,63.6 153.5,63.7 153.6,63.7L157.3,63.7C157.5,63.7 157.6,63.6 157.8,63.5C158,63.4 158.1,63.2 158.2,63.1L166.7,39.6C166.8,39.2 166.8,39 166.6,38.7C166.4,38.5 166.1,38.3 165.8,38.3L159,38.3ZM196,50.8C196,46.4 194.8,43.2 192.2,41C189.7,38.9 185.9,37.8 181,37.8C176.1,37.8 172.3,38.9 169.8,41C167.3,43.2 166,46.4 166,50.8C166,55.1 167.3,58.4 169.8,60.5C172.3,62.6 176.1,63.7 181,63.7C185.9,63.7 189.7,62.6 192.2,60.5C194.8,58.4 196,55.1 196,50.8ZM187.2,50.8C187.2,52.6 186.7,54 185.6,54.9C184.5,55.8 183,56.3 181,56.3C179,56.3 177.5,55.9 176.5,54.9C175.5,54 174.9,52.6 174.9,50.8C174.9,49 175.4,47.6 176.5,46.6C177.5,45.7 179,45.2 181,45.2C183,45.2 184.5,45.6 185.6,46.6C186.7,47.6 187.2,49 187.2,50.8ZM222.5,57.2C222.5,56.9 222.4,56.7 222.2,56.5C222,56.3 221.8,56.2 221.5,56.2L210,56.2L221.9,44.5C222,44.5 222,44.3 222.1,44.2C222.1,44 222.2,43.9 222.2,43.8L222.2,39.2C222.2,39 222.1,38.7 221.9,38.6C221.7,38.4 221.5,38.3 221.2,38.3L198.8,38.3C198.6,38.3 198.3,38.4 198.2,38.6C198,38.8 197.9,39 197.9,39.2L197.9,43.9C197.9,44.2 198,44.4 198.2,44.6C198.4,44.8 198.6,44.9 198.8,44.9L209.7,44.9L197.7,56.8C197.7,56.8 197.6,57 197.5,57.1C197.4,57.2 197.4,57.4 197.4,57.5L197.4,62.3C197.4,62.6 197.5,62.8 197.7,63C197.9,63.2 198.1,63.3 198.4,63.3L221.5,63.3C221.7,63.3 222,63.2 222.2,63C222.4,62.8 222.5,62.6 222.5,62.3L222.5,57.2ZM238.2,46.1C237.3,44.9 236.4,43.7 235.5,42.5C234.6,41.3 233.7,40.1 232.8,38.8C232.8,38.7 232.7,38.6 232.5,38.5C232.3,38.4 232.2,38.3 232.1,38.3L225,38.3C224.7,38.3 224.5,38.4 224.3,38.6C224.1,38.8 224,39 224,39.2L224,62.3C224,62.6 224.1,62.8 224.3,63C224.5,63.2 224.7,63.3 225,63.3L231.2,63.3C231.5,63.3 231.7,63.2 231.9,63C232.1,62.8 232.2,62.6 232.2,62.3L232.2,50.8L241.2,62.9C241.3,63 241.4,63.1 241.6,63.2C241.8,63.2 241.9,63.3 242,63.3L249.1,63.3C249.4,63.3 249.6,63.2 249.8,63C250,62.8 250.1,62.6 250.1,62.3L250.1,39.3C250.1,39.1 250,38.8 249.8,38.7C249.6,38.5 249.4,38.4 249.1,38.4L242.9,38.4C242.6,38.4 242.4,38.5 242.2,38.7C242,38.9 241.9,39.1 241.9,39.3L241.9,51C241.3,50.2 240.7,49.3 240.1,48.5C239.4,47.7 238.8,46.9 238.2,46.1ZM258.2,63.3C258.4,63.3 258.6,63.2 258.8,63C259,62.8 259,62.6 259,62.3L259,39.3C259,39.1 258.9,38.8 258.8,38.7C258.6,38.5 258.5,38.4 258.2,38.4L252.3,38.4C252.1,38.4 251.9,38.5 251.7,38.7C251.5,38.9 251.5,39.1 251.5,39.3L251.5,62.4C251.5,62.7 251.6,62.9 251.7,63.1C251.9,63.3 252.1,63.4 252.3,63.4L258.2,63.4L258.2,63.3ZM268.3,63.3C268.5,63.3 268.8,63.2 269,63C269.2,62.8 269.3,62.6 269.3,62.3L269.3,53.6L279,63C279.1,63 279.2,63.1 279.3,63.2C279.5,63.3 279.6,63.3 279.7,63.3L288.3,63.3C288.5,63.3 288.7,63.3 288.9,63.1C289.1,63 289.2,62.9 289.3,62.7C289.4,62.5 289.4,62.3 289.3,62.1C289.3,61.9 289.2,61.7 289,61.6L276.9,49.7L285.9,39.8C286,39.6 286.1,39.5 286.1,39.3C286.1,39.1 286.1,38.9 286,38.8C285.9,38.6 285.8,38.5 285.6,38.4C285.4,38.3 285.2,38.2 285,38.2L277.6,38.2C277.5,38.2 277.4,38.2 277.2,38.3C277,38.4 276.9,38.5 276.9,38.5L269.4,47.1L269.4,39.2C269.4,39 269.3,38.7 269.1,38.6C268.9,38.4 268.7,38.3 268.4,38.3L261.5,38.3C261.3,38.3 261,38.4 260.9,38.6C260.7,38.8 260.6,39 260.6,39.2L260.6,62.3C260.6,62.6 260.7,62.8 260.9,63C261.1,63.2 261.3,63.3 261.5,63.3L268.3,63.3Z" style="fill:rgb(22,23,23);fill-rule:nonzero;"/>
    </g>
    <g transform="matrix(1,0,0,1,-21.55,-18.75)">
        <path d="M291.3,54.7C291.5,54.7 291.7,54.6 291.9,54.5C292.1,54.4 292.2,54.3 292.3,54.1C292.4,53.9 292.5,53.7 292.5,53.5C292.5,53.3 292.5,53.1 292.3,52.9C292.2,52.7 292.1,52.6 291.9,52.5C291.7,52.4 291.5,52.4 291.3,52.4C291.1,52.4 290.9,52.4 290.7,52.5C290.5,52.6 290.4,52.7 290.3,52.9C290.2,53.1 290.2,53.3 290.2,53.5C290.2,53.7 290.2,53.9 290.3,54.1C290.4,54.3 290.5,54.4 290.7,54.5C290.9,54.6 291.1,54.7 291.3,54.7ZM295.5,54.5L295.5,47.6L293.8,47.6L293.8,54.5L295.5,54.5ZM294.7,44.7C294.5,44.7 294.3,44.7 294.2,44.8C294,44.9 293.9,45 293.8,45.2C293.7,45.3 293.7,45.5 293.7,45.7C293.7,45.9 293.7,46 293.8,46.2C293.9,46.3 294,46.4 294.2,46.5C294.3,46.6 294.5,46.6 294.7,46.6C294.9,46.6 295.1,46.6 295.3,46.5C295.4,46.4 295.5,46.3 295.6,46.2C295.7,46 295.7,45.9 295.7,45.7C295.7,45.5 295.7,45.3 295.6,45.2C295.5,45 295.4,44.9 295.3,44.8C295,44.7 294.9,44.7 294.7,44.7ZM297.4,54.5L299.1,54.5L299.1,50.4L299.1,49.8C299.2,49.6 299.3,49.5 299.4,49.3C299.5,49.1 299.7,49 299.9,48.9C300.1,48.8 300.3,48.8 300.5,48.8C300.8,48.8 301.1,48.9 301.3,49C301.5,49.1 301.7,49.3 301.7,49.6C301.8,49.9 301.8,50.2 301.8,50.5L301.8,54.4L303.6,54.4L303.6,50.3C303.6,49.8 303.5,49.3 303.4,48.9C303.2,48.5 303,48.2 302.8,48C302.6,47.8 302.3,47.6 302,47.5C301.7,47.4 301.4,47.3 301.1,47.3C300.8,47.3 300.5,47.3 300.3,47.4C300.1,47.5 299.9,47.6 299.7,47.7C299.5,47.8 299.4,47.9 299.2,48.1C299.1,48.2 299,48.4 298.9,48.5L298.8,47.5L297.3,47.5L297.3,54.5L297.4,54.5ZM307.5,54.5L307.5,48.9L309,48.9L309,47.6L307.5,47.6L307.5,47.2C307.5,46.9 307.5,46.7 307.6,46.4C307.7,46.2 307.8,46 308,45.8C308.2,45.7 308.4,45.6 308.7,45.6C308.9,45.6 309,45.6 309.1,45.6C309.2,45.6 309.3,45.6 309.4,45.7L309.5,44.4C309.4,44.3 309.2,44.3 309,44.3C308.8,44.3 308.6,44.2 308.4,44.2C308.2,44.2 308,44.2 307.8,44.3C307.6,44.3 307.4,44.4 307.2,44.5C307,44.6 306.8,44.7 306.6,44.9C306.4,45.1 306.2,45.3 306.1,45.6C306,45.8 305.9,46.1 305.8,46.4C305.8,46.7 305.7,47 305.7,47.3L305.7,47.6L304.8,47.6L304.8,48.9L305.7,48.9L305.7,54.5L307.5,54.5ZM313.1,47.4C312.6,47.4 312.1,47.5 311.7,47.7C311.3,47.9 310.9,48.1 310.6,48.4C310.3,48.7 310,49.1 309.8,49.6C309.6,50 309.6,50.6 309.6,51.1C309.6,51.7 309.7,52.1 309.8,52.6C310,53 310.2,53.4 310.6,53.7C310.9,54 311.3,54.3 311.7,54.4C312.1,54.5 312.6,54.6 313.1,54.6C313.5,54.6 313.8,54.6 314.1,54.4C314.5,54.3 314.8,54.2 315.1,54C315.4,53.8 315.7,53.6 315.9,53.3C316.1,53 316.3,52.7 316.5,52.3C316.6,51.9 316.7,51.5 316.7,50.9C316.7,50.4 316.6,49.9 316.5,49.5C316.3,49.1 316.1,48.7 315.8,48.4C315.5,48.1 315.1,47.8 314.7,47.7C314,47.5 313.6,47.4 313.1,47.4ZM313,48.7C313.3,48.7 313.6,48.8 313.8,48.9C314,49.1 314.2,49.2 314.3,49.5C314.4,49.7 314.5,50 314.6,50.3C314.7,50.5 314.7,50.8 314.7,51.1C314.7,51.6 314.6,52 314.5,52.3C314.4,52.7 314.2,52.9 313.9,53.1C313.7,53.3 313.4,53.4 313,53.4C312.8,53.4 312.5,53.4 312.3,53.2C312.1,53.1 311.9,52.9 311.7,52.7C311.5,52.5 311.5,52.3 311.4,52C311.3,51.7 311.3,51.4 311.3,51.1C311.3,50.8 311.3,50.5 311.4,50.2C311.5,49.9 311.6,49.7 311.7,49.5C311.8,49.3 312,49.1 312.2,48.9C312.5,48.8 312.7,48.7 313,48.7Z" style="fill:white;fill-rule:nonzero;"/>
    </g>
</svg>
